<?xml version="1.0" encoding="UTF-8" standalone="no"?>
<svg
   width="40"
   height="48"
   version="1.1"
   id="card-icons"
   sodipodi:docname="card.svg"
   inkscape:version="1.2 (dc2aedaf03, 2022-05-15)"
   xmlns:inkscape="http://www.inkscape.org/namespaces/inkscape"
   xmlns:sodipodi="http://sodipodi.sourceforge.net/DTD/sodipodi-0.dtd"
   xmlns="http://www.w3.org/2000/svg"
   xmlns:svg="http://www.w3.org/2000/svg">
  <defs
     id="defs11325" />
  <sodipodi:namedview
     id="namedview11323"
     pagecolor="#ffffff"
     bordercolor="#000000"
     borderopacity="0.25"
     inkscape:showpageshadow="2"
     inkscape:pageopacity="0.0"
     inkscape:pagecheckerboard="0"
     inkscape:deskcolor="#d1d1d1"
     showgrid="true"
     inkscape:zoom="16.958333"
     inkscape:cx="20.019656"
     inkscape:cy="24"
     inkscape:window-width="1920"
     inkscape:window-height="1017"
     inkscape:window-x="-8"
     inkscape:window-y="-8"
     inkscape:window-maximized="1"
     inkscape:current-layer="card-icons"
     showguides="false">
    <inkscape:grid
       type="xygrid"
       id="grid11888" />
  </sodipodi:namedview>
  <path
     id="suit-diamonds"
     d="M12 5c-2 4-2 4-5 7 3 3 3 3 5 7 2-4 2-4 5-7-3-3-3-3-5-7Z"
     stroke-width="2"
     stroke-linecap="round"
     stroke-linejoin="round" />
  <path
     id="rank-A"
     d="m7.8 40 2.7-9h3l2.7 9h-2.6l-1-4.4-.3-1.4-.4-1.5-.3 1.5-.3 1.4-1 4.5zm1.9-1.9v-1.8H14V38z"
     stroke-width=".4"
     stroke-linecap="round"
     stroke-linejoin="round" />
  <path
     id="rank-2"
     d="M8.6 40v-1.3l2-1.8q1-.8 1.6-1.5.5-.7.5-1.4 0-.5-.3-.8-.4-.4-1-.4-.5 0-.8.3l-.8.6-1.3-1.3q.7-.7 1.4-1 .8-.4 1.9-.4 1 0 1.6.3.8.4 1.2 1 .4.7.4 1.6 0 .7-.4 1.5-.4.7-1.2 1.4L12 38.2h.9l.8-.2h1.8v2z"
     stroke-width=".4"
     stroke-linecap="round"
     stroke-linejoin="round" />
  <path
     id="rank-3"
     d="m11.8 40.2-1.4-.1q-.6-.1-1.1-.4l-.9-.7 1.2-1.5 1 .5q.4.3 1 .3l.7-.1q.4 0 .6-.3.2-.1.2-.4 0-.4-.2-.7-.2-.2-.7-.3l-1.6-.1v-1.7l1.4-.1.7-.4q.2-.2.2-.5 0-.5-.4-.7-.3-.2-.7-.2l-1 .2-.9.6-1.2-1.5q.7-.5 1.5-.8.8-.3 1.6-.3 1 0 1.9.3.7.3 1.2.8.4.6.4 1.4 0 .7-.4 1l-1.2 1 1 .4.7.7.2 1q0 .9-.5 1.4-.6.7-1.4 1-.8.2-1.8.2z"
     stroke-width=".4"
     stroke-linecap="round"
     stroke-linejoin="round" />
  <path
     id="rank-4"
     d="M12.5 40v-6.9l-.5.8-.5.8-1 1.5h5.2v2H8.3v-1.8l3.5-5.2h2.8v9z"
     stroke-width=".4"
     stroke-linecap="round"
     stroke-linejoin="round" />
  <path
     id="rank-5"
     d="m12 40.2-1.4-.1q-.8-.1-1.2-.4l-.9-.7 1-1.5.7.4.7.3.6.1.8-.1.6-.4q.2-.2.2-.7 0-.5-.4-.8-.5-.3-1-.3H11l-.7.4-1-.7.1-4.6h5.7v2h-3.6l-.1 1.3h1q.8 0 1.5.2.7.3 1.2.9.4.6.4 1.6t-.5 1.7q-.5.7-1.3 1-.8.4-1.8.4z"
     stroke-width=".4"
     stroke-linecap="round"
     stroke-linejoin="round" />
  <path
     id="rank-6"
     d="m12.2 40.2-1.4-.2q-.7-.3-1.2-.8t-.8-1.4q-.3-.8-.3-2 0-1.4.3-2.2.3-.8 1-1.4.4-.6 1.1-1l1.4-.2q1 0 1.9.3.7.3 1.2.8L14 33.5l-.7-.4-.8-.2q-.5 0-1 .3-.4.3-.6.9l-.3 1.7q0 1 .2 1.7.2.5.6.7.3.3.7.3l.5-.2.4-.3q.2-.3.2-.8 0-.6-.3-.8-.3-.3-.8-.3-.4 0-.7.3-.5 0-.7.6l-.2-1.6q.4-.5 1-.7.6-.3 1.1-.3.7 0 1.5.3.5.3.9 1 .4.5.4 1.5t-.5 1.6q-.4.7-1.2 1-.7.4-1.6.4z"
     stroke-width=".4"
     stroke-linecap="round"
     stroke-linejoin="round" />
  <path
     id="rank-7"
     d="M10.3 40q0-1 .3-1.9 0-.9.4-1.7l.7-1.6 1.2-1.6H8.6V31h6.8v1.4L14 34.2q-.5.9-.7 1.7-.3.8-.4 1.8l-.2 2.3z"
     stroke-width=".4"
     stroke-linecap="round"
     stroke-linejoin="round" />
  <path
     id="rank-8"
     d="M12 40.2q-1 0-1.8-.2-.8-.3-1.2-.9-.5-.6-.5-1.3 0-.5.3-.9l.5-.7.9-.6q-.6-.4-1-.9-.3-.5-.3-1.2 0-.8.3-1.4.5-.5 1.2-.8.7-.3 1.7-.3 1.3 0 2 .7 1 .6 1 1.8 0 .5-.4 1t-1 .8l1 .6.5.8q.3.4.3 1 0 .8-.5 1.3-.4.6-1.2 1-.7.2-1.9.2zm.6-5.5q.5-.5.5-1.1 0-.3-.2-.5l-.3-.3q-.2-.2-.6-.2-.4 0-.7.2-.3.2-.3.7 0 .3.2.5l.5.4zm-.6 4q.5 0 .8-.3.4-.2.4-.7l-.1-.5-.5-.3-.5-.3-.8-.3-.4.3-.2.5v.4l.2.6.5.4.7.1z"
     stroke-width=".4"
     stroke-linecap="round"
     stroke-linejoin="round" />
  <path
     id="rank-9"
     d="M11.6 40.2q-1 0-1.8-.3l-1.2-.7 1.3-1.5.7.4q.3.2.8.2t1-.3q.4-.2.7-.9.2-.6.2-1.7t-.2-1.7l-.6-.7-.6-.2h-.6l-.4.4q-.2.3-.2.8 0 .7.3.9l.8.2.7-.2q.4-.2.8-.7l.1 1.6-1.1.7q-.6.3-1 .3-.8 0-1.4-.3-.7-.3-1-1-.4-.6-.4-1.5 0-1 .5-1.6.4-.7 1.2-1 .7-.4 1.6-.4.7 0 1.3.2.7.3 1.2.8t.9 1.4q.3.8.3 2.1t-.3 2.1q-.4.9-.9 1.4-.5.7-1.2 1-.7.2-1.5.2z"
     stroke-width=".4"
     stroke-linecap="round"
     stroke-linejoin="round" />
  <path
     id="rank-J"
     d="M11.8 40.2 10 40q-.8-.4-1.5-1.2l1.5-1.6q.3.5.7.7.5.3.9.3.5 0 .9-.4.3-.2.3-1.1V33H9.4v-2.2h6V37q0 1-.4 1.6-.4.8-1.1 1.3-.8.4-2.1.4z"
     stroke-width=".4"
     stroke-linecap="round"
     stroke-linejoin="round" />
  <path
     id="rank-Q"
     d="M11.8 40.2q-1.1 0-2-.5-.8-.5-1.3-1.6-.5-1-.5-2.7 0-1.5.5-2.6.5-1 1.3-1.5.9-.6 2-.6t2 .6q.8.5 1.2 1.5.5 1 .5 2.6 0 1.7-.5 2.7-.4 1-1.2 1.6-.9.5-2 .5zm0-2 .7-.2.4-1q.2-.6.2-1.6 0-.8-.2-1.4-.2-.6-.5-.9-.3-.3-.7-.3-.3 0-.6.3t-.4 1q-.2.5-.2 1.3 0 1 .2 1.7.1.6.4.9.3.3.7.3zm2.7 4.5q-1.4 0-2.4-.8-1-.7-1.4-1.9l2.4-.3q.1.5.4.7l.6.3h1.1l.3-.1.5 1.8-.7.2-.8.1z"
     stroke-width=".4"
     stroke-linecap="round"
     stroke-linejoin="round" />
  <path
     id="rank-K"
     d="M8.2 40v-9h2.4v3.3l2.4-3.4h2.6l-5 6.9V40zm4.9 0-1.8-3.9 1.4-1.9 3.1 5.9z"
     stroke-width=".4"
     stroke-linecap="round"
     stroke-linejoin="round" />
  <path
     id="suit-spades"
     d="M12 5c-2 4-6 5-6 8 0 2 2 2 5 1 1 2 0 3-2 5h6c-2-2-3-3-2-5 3 1 5 1 5-1 0-3-4-4-6-8z"
     stroke-width="2"
     stroke-linecap="round"
     stroke-linejoin="round" />
  <path
     id="suit-clubs"
     d="M12 5c-2 0-4 2-2 5-2-1-4 0-4 2s2 3 5 2c1 2 0 3-2 5h6c-2-2-3-3-2-5 3 1 5 0 5-2s-2-3-4-2c2-3 0-5-2-5z"
     stroke-width="2"
     stroke-linecap="round"
     stroke-linejoin="round" />
  <path
     id="suit-hearts"
     d="M9 7c-2 0-3 2-3 3 0 3 4 4 6 8 2-4 6-5 6-8 0-1-1-3-3-3s-2 1-3 2c-1-1-1-2-3-2Z"
     stroke-width="2"
     stroke-linecap="round"
     stroke-linejoin="round" />
  <path
     id="rank-10"
     d="M5.5 40v-1.9h2v-4.6h-2V32l1.2-.2.8-.2.7-.5H10v7h2v2zm9.6.2c-.7 0-1.3-.1-1.9-.5-.5-.3-1-.9-1.2-1.6-.3-.7-.5-1.5-.5-2.5 0-1.6.4-2.7 1-3.5a3 3 0 0 1 2.6-1.1c1 0 1.9.4 2.5 1.1.7.8 1 2 1 3.5a6 6 0 0 1-.5 2.5c-.3.7-.7 1.3-1.2 1.6-.5.4-1.1.5-1.8.5zm0-1.8.7-.3c.2-.1.3-.4.5-.8l.1-1.7-.1-1.7-.5-.9-.7-.2c-.3 0-.5 0-.7.2-.2.2-.4.5-.5.9-.2.4-.2 1-.2 1.7s0 1.3.2 1.7c.1.4.3.7.5.8.2.2.4.3.7.3z"
     stroke-width=".4" />
  <g
     id="suit-joker"
     stroke-width="2"
     transform="translate(0,1)">
    <path
       d="m 12,7.4999992 c -1,3.9999998 -3,4.9999998 -6,3.9999998 2,2 2,3.5 1,5 3,-1 7,-1 10,0 -1,-1.5 -1,-3 1,-5 -3,1 -5,0 -6,-3.9999998 z"
       id="path14222" />
    <circle
       cx="12"
       cy="6.5"
       r="1"
       id="circle14224" />
    <circle
       cx="18"
       cy="11.5"
       r="1"
       id="circle14226" />
    <circle
       cx="6"
       cy="11.5"
       r="1"
       id="circle14228" />
  </g>
</svg>
