<svg width="40" height="48" xmlns="http://www.w3.org/2000/svg">
    <g fill="currentcolor" stroke="currentcolor" stroke-linecap="round" stroke-linejoin="round">
        <path id="suit-diamonds" d="M12 5c-2 4-2 4-5 7 3 3 3 3 5 7 2-4 2-4 5-7-3-3-3-3-5-7Z" stroke-width="2"/>
        <path id="rank-A" d="m23.28 40.78 3.92-13h4.16l3.92 13h-3.64l-1.46-6.32q-.2-.94-.46-2.04t-.48-2.08h-.08q-.2.98-.44 2.08t-.46 2.04l-1.46 6.32zm2.82-2.76v-2.66h6.32v2.66z" stroke-width=".5"/>
        <path id="rank-2" d="M24.32 40.78v-1.96q1.7-1.38 3.02-2.56 1.32-1.18 2.08-2.18.76-1 .76-1.86 0-.86-.5-1.26-.5-.42-1.34-.42-.7 0-1.28.38-.56.36-1.08.82l-1.82-1.84q1.04-1.06 2.1-1.54 1.06-.5 2.56-.5 1.36 0 2.4.52 1.04.5 1.62 1.44.6.94.6 2.2 0 1.02-.62 2.08t-1.58 2.08q-.96 1-2 1.88.52-.06 1.16-.1.66-.06 1.12-.06h2.56v2.88z" stroke-width=".5"/>
        <path id="rank-3" d="M28.8 41.02q-1.08 0-1.98-.22-.9-.22-1.62-.62-.7-.4-1.2-.96l1.56-2.16q.64.54 1.4.88.76.32 1.48.32.62 0 1.1-.12.48-.14.74-.4.28-.28.28-.68 0-.48-.3-.82-.28-.34-1.04-.52t-2.18-.18v-2.4q1.14 0 1.82-.18.68-.18.98-.5.32-.32.32-.76 0-.58-.42-.86-.42-.3-1.18-.3-.68 0-1.28.26-.58.26-1.24.78l-1.72-2.08q.98-.78 2.08-1.2 1.1-.44 2.32-.44 1.46 0 2.56.42t1.7 1.22q.62.78.62 1.94 0 .92-.6 1.6t-1.72 1.14v.08q.78.22 1.4.64.62.4.96 1 .36.6.36 1.4 0 1.2-.74 2.04-.72.82-1.9 1.26-1.18.42-2.56.42z" stroke-width=".5"/>
        <path id="rank-4" d="M29.88 40.78V33.9q0-.64.04-1.5.06-.86.08-1.5h-.08q-.32.56-.7 1.14-.38.56-.72 1.14l-1.32 2.16h7.36v2.6h-10.6v-2.4l4.9-7.44h4.24v12.68z" stroke-width=".5"/>
        <path id="rank-5" d="M28.92 41.02q-1.08 0-1.98-.24-.88-.22-1.58-.62-.7-.42-1.24-.94l1.52-2.16q.42.34.86.62.44.26.92.42.48.16.98.16.66 0 1.14-.18.5-.18.76-.54.26-.36.26-.92 0-.82-.58-1.22-.58-.42-1.42-.42-.56 0-.94.12-.38.12-1.02.48l-1.48-.96.32-6.52h8v2.88H28.4l-.16 1.84q.4-.12.7-.16.32-.04.7-.04 1.16 0 2.14.42 1 .42 1.6 1.3.62.86.62 2.2 0 1.42-.72 2.42-.7 1-1.86 1.54-1.16.52-2.5.52z" stroke-width=".5"/>
        <path id="rank-6" d="M29.6 41.02q-.96 0-1.9-.34-.92-.36-1.68-1.12-.76-.76-1.22-1.96-.44-1.22-.44-2.94t.46-3q.46-1.28 1.24-2.12.78-.84 1.76-1.26 1-.42 2.06-.42 1.42 0 2.5.48t1.74 1.12l-1.8 2.04q-.36-.34-.94-.6-.58-.28-1.18-.28-.72 0-1.34.38-.62.38-1 1.26t-.38 2.4q0 1.58.32 2.4.34.82.82 1.12.48.28.9.28.42 0 .78-.16.38-.16.62-.54.24-.4.24-1.06 0-.84-.46-1.18-.44-.34-1.1-.34-.5 0-1.04.28-.52.26-1.04.92l-.16-2.16q.66-.7 1.5-1.06.86-.38 1.5-.38 1.08 0 1.96.42.9.4 1.42 1.28.54.86.54 2.22 0 1.36-.66 2.34-.64.96-1.7 1.48-1.06.5-2.32.5z" stroke-width=".5"/>
        <path id="rank-7" d="M26.88 40.78q.1-1.5.3-2.76.22-1.28.62-2.42t1.04-2.26q.66-1.14 1.62-2.36h-6V28.1h9.66v2.12q-1.18 1.28-1.9 2.42-.7 1.12-1.08 2.3-.38 1.16-.56 2.58-.16 1.4-.26 3.26z" stroke-width=".5"/>
        <path id="rank-8" d="M29.24 41.02q-1.48 0-2.56-.44t-1.66-1.22q-.58-.78-.58-1.82 0-.74.3-1.28.3-.56.8-.98.52-.42 1.16-.74v-.08q-.8-.58-1.32-1.3-.5-.72-.5-1.7 0-1.12.56-1.92.58-.82 1.58-1.24 1.02-.44 2.34-.44 1.9 0 3.06.96 1.18.94 1.18 2.56 0 .86-.54 1.54-.52.68-1.24 1.12v.08q.66.32 1.18.78.54.46.84 1.1.32.62.32 1.46 0 1.02-.58 1.82-.56.8-1.66 1.28-1.1.46-2.68.46zm.84-7.8q.72-.78.72-1.6 0-.44-.18-.74-.18-.32-.52-.48-.34-.18-.82-.18-.56 0-.98.3-.42.28-.42.94 0 .42.26.72.28.3.78.56.5.24 1.16.48zm-.76 5.44q.7 0 1.16-.3.48-.3.48-1.02 0-.34-.2-.6-.18-.26-.54-.46-.34-.22-.84-.42-.5-.2-1.12-.44-.26.22-.46.5-.18.28-.3.6-.1.3-.1.62 0 .5.26.84.26.34.7.52.44.16.96.16z" stroke-width=".5"/>
        <path id="rank-9" d="M28.64 41.02q-1.42 0-2.5-.48-1.08-.5-1.74-1.12l1.8-2.04q.36.32.94.6.58.28 1.18.28.74 0 1.34-.38.62-.38 1-1.26t.38-2.4q0-1.58-.34-2.4-.32-.82-.8-1.1-.46-.3-.9-.3-.4 0-.78.16t-.62.54q-.24.38-.24 1.06 0 .84.44 1.18.46.34 1.12.34.52 0 1.04-.26.54-.28 1.04-.94l.16 2.16q-.66.68-1.52 1.06-.84.38-1.48.38-1.08 0-1.98-.4-.88-.42-1.42-1.28-.52-.88-.52-2.24 0-1.36.64-2.32.66-.98 1.72-1.48 1.08-.52 2.32-.52.96 0 1.88.36.94.34 1.7 1.1t1.2 1.98q.46 1.2.46 2.92t-.46 3q-.46 1.28-1.24 2.12-.78.84-1.78 1.26-.98.42-2.04.42z" stroke-width=".5"/>
        <path id="rank-10" d="M12.72 40.78v-2.76h3.32v-6.56h-2.8v-2.12q.9-.14 1.54-.3.64-.16 1.14-.38.52-.24 1.04-.56h2.52v9.92h2.72v2.76zM29.28 41.02q-1.48 0-2.62-.76-1.12-.76-1.76-2.24-.62-1.48-.62-3.64 0-3.26 1.38-4.88 1.38-1.64 3.62-1.64t3.62 1.64q1.38 1.62 1.38 4.88 0 2.16-.64 3.64-.62 1.48-1.74 2.24-1.12.76-2.62.76zm0-2.64q.54 0 .98-.34.44-.34.7-1.2.28-.88.28-2.46t-.28-2.42q-.26-.84-.7-1.14-.44-.32-.98-.32-.52 0-.98.32-.44.3-.72 1.14-.26.84-.26 2.42t.26 2.46q.28.86.72 1.2.46.34.98.34zm0-2.4q-.68 0-1.14-.44-.46-.44-.46-1.16t.46-1.16q.46-.44 1.14-.44.7 0 1.14.44.46.44.46 1.16t-.46 1.16q-.44.44-1.14.44z" stroke-width=".5"/>
        <path id="rank-J" d="M28.72 41.02q-1.08 0-2.3-.46-1.2-.46-2.12-1.68l1.94-2.14q.56.62 1.16.98.6.34 1.2.34.84 0 1.28-.42.46-.44.46-1.66v-5.32H25.4v-2.88h8.38v8.48q0 1.3-.5 2.38-.48 1.08-1.58 1.74-1.1.64-2.98.64z" stroke-width=".5"/>
        <path id="rank-Q" d="M29.28 41.02q-1.58 0-2.78-.76-1.2-.76-1.88-2.26-.66-1.52-.66-3.78 0-2.2.66-3.68.68-1.5 1.88-2.24 1.2-.76 2.78-.76 1.58 0 2.78.76 1.2.74 1.86 2.24.68 1.48.68 3.68 0 2.26-.68 3.78-.66 1.5-1.86 2.26-1.2.76-2.78.76zm0-2.8q.56 0 .96-.4.4-.42.62-1.3.22-.88.22-2.3 0-1.24-.22-2.06-.22-.84-.62-1.24-.4-.42-.96-.42-.56 0-.96.42-.4.4-.62 1.24-.22.82-.22 2.06 0 1.42.22 2.3.22.88.62 1.3.4.4.96.4zm3.8 6.24q-2.02 0-3.42-1.06-1.38-1.06-2.02-2.74l3.48-.36q.18.58.56.88.4.32.88.44t.92.12q.3 0 .58-.1.3-.08.5-.18l.6 2.52q-.32.2-.86.34-.52.14-1.22.14z" stroke-width=".5"/>
        <path id="rank-K" d="M24.4 40.78v-13h3.48v4.84h.08l3.2-4.84h3.8l-7.08 9.68v3.32zm7.08 0-2.64-5.56 2-2.68 4.44 8.24z" stroke-width=".5"/>
        <path id="suit-spades" d="M12 5c-2 4-6 5-6 8 0 2 2 2 5 1 1 2 0 3-2 5h6c-2-2-3-3-2-5 3 1 5 1 5-1 0-3-4-4-6-8z" stroke-width="2"/>
        <path id="suit-clubs" d="M12 5c-2 0-3.986 2.002-2 5-2-1-4 0-4 2s2 3 5 2c1 2 0 3-2 5h6c-2-2-3-3-2-5 3 1 5 0 5-2s-2-3-4-2c2-3 0-5-2-5z" stroke-width="2"/>
        <path id="suit-hearts" d="M9 7c-2 0-3 2-3 3 0 3 4 4 6 8 2-4 6-5 6-8 0-1-1-3-3-3s-2 1-3 2c-1-1-1-2-3-2Z" stroke-width="2"/>
    </g>
</svg>